<svg width="121" height="33" viewBox="0 0 121 33" fill="currentColor" xmlns="http://www.w3.org/2000/svg">
<path d="M16.7148 7.93193C16.6468 7.84193 16.4088 7.67193 16.0008 7.42193C15.5928 7.17193 15.0828 6.91193 14.4708 6.63993C13.8588 6.36793 13.1898 6.12993 12.4648 5.92593C11.757 5.72439 11.0247 5.62142 10.2888 5.61993C8.29378 5.61993 7.29679 6.28893 7.29679 7.62593C7.29679 8.03393 7.40379 8.37393 7.61979 8.64593C7.83479 8.91793 8.15178 9.16193 8.57178 9.37693C8.99078 9.59193 9.51779 9.79093 10.1518 9.97193L11.5578 10.3649L12.3628 10.5839C13.5188 10.9009 14.5608 11.2469 15.4908 11.6209C16.4198 11.9949 17.2078 12.4599 17.8538 13.0149C18.4982 13.5682 19.0096 14.2597 19.3498 15.0379C19.6998 15.8309 19.8768 16.7829 19.8768 17.8939C19.8768 19.2539 19.6218 20.4039 19.1118 21.3449C18.6018 22.2849 17.9268 23.0449 17.0888 23.6229C16.2488 24.2009 15.2868 24.6199 14.1988 24.8809C13.1108 25.1409 11.9888 25.2719 10.8328 25.2719C8.991 25.2615 7.1598 24.9925 5.39279 24.4729C4.50879 24.2129 3.65279 23.9009 2.82579 23.5379C2.02374 23.1894 1.25521 22.7683 0.529785 22.2799L2.97779 17.4179C3.06779 17.5309 3.36279 17.7469 3.86179 18.0639C4.35979 18.3809 4.97779 18.6989 5.71479 19.0159C6.45079 19.3329 7.27279 19.6159 8.17979 19.8659C9.08579 20.1159 10.0038 20.2399 10.9338 20.2399C12.9058 20.2399 13.8918 19.6399 13.8918 18.4379C13.8918 17.9849 13.7438 17.6109 13.4498 17.3159C13.1548 17.0209 12.7468 16.7549 12.2258 16.5169C11.737 16.2981 11.2346 16.1111 10.7218 15.9569L9.01979 15.4619L8.04379 15.1739C6.93279 14.8339 5.96978 14.4659 5.15378 14.0689C4.33778 13.6719 3.66379 13.2129 3.13079 12.6919C2.60767 12.1851 2.20154 11.5701 1.94079 10.8899C1.67979 10.2099 1.54979 9.41693 1.54979 8.50993C1.54979 7.23993 1.78779 6.11893 2.26379 5.14393C2.72268 4.19101 3.38408 3.34975 4.20179 2.67893C5.04229 1.99714 6.00615 1.48346 7.04078 1.16593C8.11678 0.825932 9.25579 0.655932 10.4578 0.655932C11.2958 0.655932 12.1238 0.735932 12.9398 0.893932C13.7558 1.05293 14.5378 1.25693 15.2858 1.50593C16.0338 1.75593 16.7308 2.03893 17.3758 2.35593C18.0228 2.67293 18.6178 2.99093 19.1618 3.30793L16.7148 7.93193ZM40.1388 24.9999H34.6988V14.9699C34.6988 13.8139 34.4718 12.9639 34.0188 12.4199C33.5648 11.8759 32.9418 11.6039 32.1488 11.6039C31.8308 11.6039 31.4858 11.6779 31.1118 11.8249C30.7184 11.9837 30.3515 12.2015 30.0238 12.4709C29.6614 12.7652 29.3358 13.102 29.0538 13.4739C28.7567 13.8637 28.5269 14.3004 28.3738 14.7659V24.9999H22.9338V0.179932H28.3738V10.1419C29.0045 9.10192 29.9032 8.25056 30.9758 7.67693C32.0518 7.09893 33.2358 6.80993 34.5288 6.80993C35.7298 6.80993 36.6988 7.01993 37.4358 7.43893C38.1718 7.85893 38.7388 8.39093 39.1358 9.03693C39.5318 9.68293 39.7988 10.4079 39.9348 11.2129C40.0708 12.0179 40.1388 12.8049 40.1388 13.5759V24.9999ZM52.4788 25.3399C50.9598 25.3399 49.6058 25.0899 48.4158 24.5919C47.2258 24.0929 46.2228 23.4189 45.4058 22.5689C44.5914 21.7209 43.9609 20.7139 43.5538 19.6109C43.1335 18.4855 42.9201 17.2933 42.9238 16.0919C42.9238 14.8679 43.1338 13.6949 43.5538 12.5729C43.9612 11.4699 44.5921 10.4628 45.4068 9.61493C46.2228 8.76493 47.2258 8.08493 48.4158 7.57493C49.6058 7.06493 50.9598 6.80993 52.4788 6.80993C53.9978 6.80993 55.3458 7.06493 56.5248 7.57493C57.7038 8.08493 58.7008 8.76493 59.5168 9.61493C60.3329 10.465 60.9689 11.4711 61.3868 12.5729C61.8177 13.696 62.0367 14.8891 62.0328 16.0919C62.0365 17.2933 61.8231 18.4855 61.4028 19.6109C60.9957 20.7139 60.3652 21.7209 59.5508 22.5689C58.7348 23.4189 57.7308 24.0929 56.5408 24.5919C55.3508 25.0909 53.9978 25.3399 52.4788 25.3399ZM48.4998 16.0919C48.4998 17.4969 48.8738 18.6249 49.6218 19.4749C50.3698 20.3249 51.3218 20.7499 52.4778 20.7499C53.0181 20.7557 53.5527 20.6395 54.0418 20.4099C54.5178 20.1829 54.9318 19.8659 55.2818 19.4579C55.6497 19.0214 55.9326 18.5197 56.1158 17.9789C56.3246 17.372 56.4281 16.7338 56.4218 16.0919C56.4218 14.6869 56.0478 13.5589 55.2998 12.7089C54.5518 11.8589 53.6108 11.4339 52.4778 11.4339C51.9389 11.4296 51.4056 11.543 50.915 11.7661C50.4245 11.9893 49.9886 12.3168 49.6378 12.7259C49.2706 13.1627 48.9884 13.6643 48.8058 14.2049C48.597 14.8119 48.4935 15.4501 48.4998 16.0919ZM76.2758 11.8079C74.9608 11.8309 73.7708 12.0459 72.7058 12.4539C71.6408 12.8619 70.8698 13.4739 70.3938 14.2899V24.9999H64.9538V7.14993H69.9518V10.7539C70.5638 9.55293 71.3518 8.61193 72.3148 7.93193C73.2778 7.25193 74.3038 6.90093 75.3918 6.87793H75.9358C76.0488 6.87793 76.1628 6.88893 76.2758 6.91193V11.8079ZM90.3498 24.0479C89.5134 24.3959 88.6561 24.6911 87.7828 24.9319C86.8198 25.2039 85.8508 25.3399 84.8758 25.3399C84.1958 25.3399 83.5558 25.2549 82.9558 25.0849C82.3772 24.9266 81.8382 24.6486 81.3738 24.2689C80.9208 23.8949 80.5638 23.4019 80.3038 22.7899C80.0418 22.1779 79.9118 21.4409 79.9118 20.5799V11.2639H77.6338V7.14993H79.9118V1.47193H85.3518V7.14993H88.9898V11.2639H85.3518V18.7099C85.3518 19.2999 85.4988 19.7239 85.7938 19.9849C86.0888 20.2449 86.4628 20.3759 86.9158 20.3759C87.3238 20.3759 87.7428 20.3079 88.1738 20.1719C88.6038 20.0359 88.9788 19.8889 89.2958 19.7299L90.3498 24.0479ZM92.6268 0.179932H98.0668V18.6419C98.0668 20.0019 98.6448 20.6819 99.8008 20.6819C100.073 20.6819 100.373 20.6419 100.702 20.5629C101.031 20.4829 101.332 20.3649 101.603 20.2059L102.317 24.2859C101.637 24.6029 100.855 24.8529 99.9708 25.0339C99.0868 25.2149 98.2598 25.3059 97.4888 25.3059C95.9248 25.3059 94.7238 24.8979 93.8848 24.0819C93.0458 23.2659 92.6268 22.0869 92.6268 20.5459V0.179932ZM104.083 27.6859C104.537 27.8449 104.962 27.9579 105.358 28.0259C105.711 28.0899 106.07 28.1241 106.429 28.1279C107.087 28.1279 107.597 27.9009 107.959 27.4479C108.322 26.9949 108.651 26.1779 108.945 24.9999L102.145 7.14993H107.755L111.903 20.3419L115.473 7.14993H120.573L113.773 27.8899C113.324 29.3253 112.431 30.5812 111.223 31.4769C109.999 32.3949 108.549 32.8539 106.871 32.8539C106.409 32.8532 105.949 32.8134 105.494 32.7349C105.012 32.6508 104.54 32.5198 104.084 32.3439L104.083 27.6859Z" fill="currentColor"/>
</svg>
